<mxfile host="Electron" agent="Mozilla/5.0 (Windows NT 10.0; Win64; x64) AppleWebKit/537.36 (KHTML, like Gecko) draw.io/26.0.9 Chrome/128.0.6613.186 Electron/32.2.5 Safari/537.36" version="26.0.9">
  <diagram name="Page-1" id="KT4GDamzcqaZYSZdZJCs">
    <mxGraphModel dx="2046" dy="1350" grid="0" gridSize="10" guides="1" tooltips="1" connect="1" arrows="1" fold="1" page="0" pageScale="1" pageWidth="1200" pageHeight="1920" background="#ffffff" math="0" shadow="0">
      <root>
        <mxCell id="0" />
        <mxCell id="1" parent="0" />
        <mxCell id="Xe7MajIfbq_Jk5JDG2yo-25" value="" style="whiteSpace=wrap;html=1;aspect=fixed;" vertex="1" parent="1">
          <mxGeometry x="-668" y="-255" width="776" height="776" as="geometry" />
        </mxCell>
        <mxCell id="Xe7MajIfbq_Jk5JDG2yo-1" value="Créer compte" style="shape=umlFrame;whiteSpace=wrap;html=1;pointerEvents=0;recursiveResize=0;container=1;collapsible=0;width=95;height=25;swimlaneFillColor=none;gradientColor=none;" vertex="1" parent="1">
          <mxGeometry x="-613" y="-178" width="680" height="640" as="geometry" />
        </mxCell>
        <mxCell id="Xe7MajIfbq_Jk5JDG2yo-2" value="" style="ellipse;fillColor=strokeColor;html=1;" vertex="1" parent="Xe7MajIfbq_Jk5JDG2yo-1">
          <mxGeometry x="63" y="169" width="30" height="30" as="geometry" />
        </mxCell>
        <mxCell id="Xe7MajIfbq_Jk5JDG2yo-5" value="Afficher le formulaire" style="rounded=1;whiteSpace=wrap;html=1;arcSize=40;fontColor=#000000;fillColor=#ffffc0;strokeColor=#ff0000;" vertex="1" parent="Xe7MajIfbq_Jk5JDG2yo-1">
          <mxGeometry x="465" y="166" width="120" height="40" as="geometry" />
        </mxCell>
        <mxCell id="Xe7MajIfbq_Jk5JDG2yo-3" value="Demander création compte" style="rounded=1;whiteSpace=wrap;html=1;arcSize=40;fontColor=#000000;fillColor=#ffffc0;strokeColor=#ff0000;" vertex="1" parent="Xe7MajIfbq_Jk5JDG2yo-1">
          <mxGeometry x="203" y="159" width="157" height="40" as="geometry" />
        </mxCell>
        <mxCell id="Xe7MajIfbq_Jk5JDG2yo-7" value="Valider formulaire" style="rounded=1;whiteSpace=wrap;html=1;arcSize=40;fontColor=#000000;fillColor=#ffffc0;strokeColor=#ff0000;" vertex="1" parent="Xe7MajIfbq_Jk5JDG2yo-1">
          <mxGeometry x="182" y="343" width="120" height="40" as="geometry" />
        </mxCell>
        <mxCell id="Xe7MajIfbq_Jk5JDG2yo-11" style="edgeStyle=none;curved=1;rounded=0;orthogonalLoop=1;jettySize=auto;html=1;fontSize=12;startSize=8;endSize=8;exitX=1;exitY=1;exitDx=0;exitDy=0;entryX=0;entryY=0.5;entryDx=0;entryDy=0;endArrow=open;endFill=0;" edge="1" parent="Xe7MajIfbq_Jk5JDG2yo-1" target="Xe7MajIfbq_Jk5JDG2yo-3">
          <mxGeometry relative="1" as="geometry">
            <mxPoint x="88.60660171779818" y="179.60660171779818" as="sourcePoint" />
            <mxPoint x="233" y="171.43987234469023" as="targetPoint" />
          </mxGeometry>
        </mxCell>
        <mxCell id="Xe7MajIfbq_Jk5JDG2yo-12" value="" style="edgeStyle=none;orthogonalLoop=1;jettySize=auto;html=1;rounded=0;fontSize=12;startSize=8;endSize=8;curved=1;exitX=0.25;exitY=1;exitDx=0;exitDy=0;endArrow=open;endFill=0;" edge="1" parent="Xe7MajIfbq_Jk5JDG2yo-1" source="Xe7MajIfbq_Jk5JDG2yo-5" target="Xe7MajIfbq_Jk5JDG2yo-7">
          <mxGeometry width="140" relative="1" as="geometry">
            <mxPoint x="439" y="177" as="sourcePoint" />
            <mxPoint x="579" y="177" as="targetPoint" />
            <Array as="points" />
          </mxGeometry>
        </mxCell>
        <mxCell id="Xe7MajIfbq_Jk5JDG2yo-20" value="" style="edgeStyle=none;curved=1;rounded=0;orthogonalLoop=1;jettySize=auto;html=1;fontSize=12;startSize=8;endSize=8;endArrow=open;endFill=0;" edge="1" parent="Xe7MajIfbq_Jk5JDG2yo-1" source="Xe7MajIfbq_Jk5JDG2yo-14" target="Xe7MajIfbq_Jk5JDG2yo-19">
          <mxGeometry relative="1" as="geometry" />
        </mxCell>
        <mxCell id="Xe7MajIfbq_Jk5JDG2yo-14" value="Vérification info" style="rounded=1;whiteSpace=wrap;html=1;arcSize=40;fontColor=#000000;fillColor=#ffffc0;strokeColor=#ff0000;" vertex="1" parent="Xe7MajIfbq_Jk5JDG2yo-1">
          <mxGeometry x="407" y="343" width="120" height="40" as="geometry" />
        </mxCell>
        <mxCell id="Xe7MajIfbq_Jk5JDG2yo-16" value="" style="endArrow=open;html=1;rounded=0;fontSize=12;startSize=8;endSize=8;curved=1;exitX=1;exitY=0.5;exitDx=0;exitDy=0;endFill=0;" edge="1" parent="Xe7MajIfbq_Jk5JDG2yo-1" source="Xe7MajIfbq_Jk5JDG2yo-7" target="Xe7MajIfbq_Jk5JDG2yo-14">
          <mxGeometry width="50" height="50" relative="1" as="geometry">
            <mxPoint x="495" y="361" as="sourcePoint" />
            <mxPoint x="545" y="311" as="targetPoint" />
          </mxGeometry>
        </mxCell>
        <mxCell id="Xe7MajIfbq_Jk5JDG2yo-17" value="" style="endArrow=classic;html=1;rounded=0;fontSize=12;startSize=8;endSize=8;curved=1;exitX=1;exitY=0.5;exitDx=0;exitDy=0;" edge="1" parent="Xe7MajIfbq_Jk5JDG2yo-1">
          <mxGeometry width="50" height="50" relative="1" as="geometry">
            <mxPoint x="361" y="182" as="sourcePoint" />
            <mxPoint x="466" y="182" as="targetPoint" />
          </mxGeometry>
        </mxCell>
        <mxCell id="Xe7MajIfbq_Jk5JDG2yo-23" value="" style="edgeStyle=none;curved=1;rounded=0;orthogonalLoop=1;jettySize=auto;html=1;fontSize=12;startSize=8;endSize=8;entryX=1;entryY=0.5;entryDx=0;entryDy=0;" edge="1" parent="Xe7MajIfbq_Jk5JDG2yo-1" source="Xe7MajIfbq_Jk5JDG2yo-19" target="Xe7MajIfbq_Jk5JDG2yo-24">
          <mxGeometry relative="1" as="geometry">
            <mxPoint x="461" y="610" as="targetPoint" />
          </mxGeometry>
        </mxCell>
        <mxCell id="Xe7MajIfbq_Jk5JDG2yo-19" value="Emettre accusé" style="html=1;shape=mxgraph.infographic.ribbonSimple;notch1=0;notch2=20;align=center;verticalAlign=middle;fontSize=14;fontStyle=0;fillColor=#FFFFC0;whiteSpace=wrap;strokeColor=#FF0000;" vertex="1" parent="Xe7MajIfbq_Jk5JDG2yo-1">
          <mxGeometry x="383" y="478" width="160" height="40" as="geometry" />
        </mxCell>
        <mxCell id="Xe7MajIfbq_Jk5JDG2yo-24" value="" style="ellipse;html=1;shape=endState;fillColor=strokeColor;" vertex="1" parent="Xe7MajIfbq_Jk5JDG2yo-1">
          <mxGeometry x="79" y="493" width="30" height="30" as="geometry" />
        </mxCell>
      </root>
    </mxGraphModel>
  </diagram>
</mxfile>
